<?xml version="1.0" standalone="no"?>
<!DOCTYPE svg PUBLIC "-//W3C//DTD SVG 20010904//EN"
 "http://www.w3.org/TR/2001/REC-SVG-20010904/DTD/svg10.dtd">
<svg version="1.0" xmlns="http://www.w3.org/2000/svg"
 width="256.000000pt" height="256.000000pt" viewBox="0 0 256.000000 256.000000"
 preserveAspectRatio="xMidYMid meet">

<g transform="translate(0.000000,256.000000) scale(0.100000,-0.100000)"
fill="#514cc7" stroke="none">
<path d="M1630 2540 c0 -33 -53 -457 -70 -565 -19 -114 -93 -465 -120 -566 -8
-28 -17 -39 -38 -44 -15 -3 -41 -15 -59 -26 -29 -18 -31 -23 -22 -47 6 -15 24
-41 40 -58 l29 -30 -14 -70 c-24 -112 -143 -610 -175 -733 l-30 -115 41 -84
c39 -82 113 -172 143 -172 8 0 18 41 30 132 53 415 169 971 205 989 8 4 53 12
100 18 47 6 141 19 209 30 69 11 128 18 131 16 4 -3 -3 -64 -15 -137 -85 -503
-90 -787 -15 -900 16 -24 31 -55 35 -70 8 -33 48 -78 70 -78 12 0 15 16 15 93
0 181 41 547 101 897 38 225 33 212 73 204 31 -5 34 -4 40 26 10 54 6 113 -13
165 -17 48 -17 53 1 135 61 278 131 515 190 642 37 80 40 90 28 118 -14 33
-106 122 -151 145 -33 17 -33 17 -69 -75 -45 -115 -184 -646 -216 -823 -3 -21
-12 -40 -18 -43 -6 -2 -78 -16 -161 -30 -82 -15 -176 -31 -207 -37 -32 -6 -60
-9 -62 -6 -6 6 142 562 183 687 17 52 31 100 31 108 0 30 -85 185 -128 234
-51 59 -112 97 -112 70z"/>
<path d="M595 2520 c-57 -12 -133 -34 -197 -58 -153 -57 -318 -177 -318 -232
0 -38 37 -166 66 -227 l25 -53 71 70 c67 66 204 168 213 158 6 -5 -37 -254
-65 -378 -53 -239 -372 -1480 -386 -1502 -3 -5 15 -51 40 -102 32 -66 58 -105
88 -130 23 -20 46 -35 52 -33 5 2 20 75 33 163 12 87 41 249 64 359 38 185
136 590 156 643 l9 23 18 -20 c11 -12 32 -21 47 -21 15 0 30 -4 33 -9 3 -5 28
-141 56 -302 66 -394 122 -644 168 -750 24 -56 78 -119 102 -119 42 0 150 126
150 174 0 9 -16 44 -35 78 -90 165 -193 464 -271 787 -36 148 -36 160 5 161 7
0 45 17 85 37 101 52 227 181 283 288 90 174 126 360 104 545 -25 220 -109
358 -261 428 -48 22 -71 26 -175 28 -66 1 -138 -1 -160 -6z m340 -223 c127
-27 185 -112 193 -282 12 -285 -144 -502 -424 -591 -88 -28 -204 -33 -204 -9
0 32 201 699 236 783 9 23 10 40 3 59 -12 33 -9 36 49 44 72 10 82 10 147 -4z"/>
</g>
</svg>
